<svg xmlns="http://www.w3.org/2000/svg" viewBox="0 0 1806 1254" version="1.1">
	<path d="M 797 0.275 C 796.725 0.558, 793.350 1.030, 789.500 1.325 C 774.901 2.442, 752.097 6.632, 739.134 10.578 C 734.385 12.024, 721.637 16.535, 710.803 20.604 C 699.970 24.672, 690.838 28, 690.510 28 C 690.182 28, 681.795 30.958, 671.873 34.573 C 654.235 41, 640.864 46.525, 608.500 60.756 C 599.700 64.625, 586.875 70.161, 580 73.057 C 565.300 79.250, 556.620 83.462, 525 99.746 C 512.075 106.403, 495.200 114.545, 487.500 117.841 C 464.453 127.706, 453.121 132.875, 440.906 139.095 C 434.529 142.343, 428.856 145, 428.300 145 C 425.428 145, 418.076 152.451, 413.596 159.901 C 409.276 167.084, 408.835 168.323, 409.891 170.297 C 411.359 173.040, 410.323 175.783, 402.442 190.018 C 395.309 202.902, 391.201 212.608, 383.830 234 C 373.386 264.311, 373.308 264.499, 336.709 346.986 C 334.394 352.204, 328.299 363.454, 323.164 371.986 C 318.030 380.519, 309.984 394.250, 305.285 402.500 C 290.246 428.905, 280.380 442, 275.525 442 C 272.815 442, 273.768 443.732, 257.372 409 C 250.378 394.184, 234.371 366.119, 229.645 360.385 C 223.865 353.373, 216.941 352.357, 205.667 356.866 C 201.725 358.443, 194.450 360.950, 189.500 362.439 C 176.124 366.461, 172.262 368.530, 171.479 372.098 C 171.118 373.739, 171.270 375.626, 171.816 376.291 C 172.429 377.037, 173.045 398.009, 173.425 431 C 174.076 487.640, 174.246 492.553, 176.588 522.500 C 178.633 548.653, 180.725 563.160, 185.513 584.391 C 188.839 599.139, 199.702 633.787, 204.565 645.160 C 213.583 666.247, 226.866 689.712, 233.628 696.500 C 235.272 698.150, 237.413 700.857, 238.385 702.515 C 241.513 707.848, 249.649 711.662, 266 715.460 C 275.268 717.613, 281.794 717.371, 305.219 714.002 C 336.448 709.511, 339.483 708.630, 344.864 702.502 C 351.193 695.293, 355.981 679.345, 355.993 665.429 C 356.005 651.579, 347.023 614.901, 339.726 599 C 338.085 595.425, 335.504 589.800, 333.989 586.500 C 332.475 583.200, 329.677 577.125, 327.771 573 C 325.865 568.875, 320.807 556.950, 316.530 546.500 C 312.254 536.050, 306.334 521.787, 303.375 514.805 C 296.251 497.992, 296.124 496.465, 301.604 493.514 C 307.305 490.444, 316.933 479.210, 324 467.383 C 327.575 461.400, 334.276 450.429, 338.892 443.002 C 351.220 423.165, 356.837 411.918, 366.110 388.500 C 370.684 376.950, 378.386 359.850, 383.225 350.500 C 391.406 334.696, 395.359 326.768, 418.415 279.930 C 423.134 270.344, 429.043 258.675, 431.546 254 C 439.828 238.531, 449.023 218.157, 452.415 207.755 C 456.539 195.109, 462.422 180.856, 465.486 176.084 C 467.972 172.213, 473.353 166.945, 479.108 162.747 C 484.283 158.972, 504.878 147.563, 516 142.310 C 521.225 139.842, 539.900 130.677, 557.500 121.942 C 576.196 112.664, 594.281 104.421, 601 102.115 C 630.328 92.052, 642.625 87.423, 657 81.033 C 675.751 72.699, 684.069 69.631, 707.500 62.408 C 717.400 59.356, 732.475 54.260, 741 51.083 C 760.581 43.787, 763.433 43.107, 777.216 42.452 C 788.223 41.929, 799.328 40.579, 802.437 39.386 C 803.331 39.043, 804.230 39.435, 804.568 40.316 C 805.025 41.508, 806.280 41.727, 810.326 41.324 C 817.467 40.613, 821.429 43.362, 825.725 52.009 C 833.484 67.626, 842.156 88.791, 847.439 105 C 857.787 136.752, 862.196 149.362, 867.017 161 C 869.637 167.325, 874.563 179.250, 877.963 187.500 C 881.363 195.750, 886.436 206.325, 889.237 211 C 907.502 241.493, 933.859 270.511, 965.500 294.961 C 982.246 307.902, 1018.500 329.567, 1036 337.092 C 1062 348.271, 1095.550 357.142, 1117 358.508 C 1122.225 358.840, 1130.100 359.468, 1134.500 359.903 C 1142.897 360.733, 1174.740 359.776, 1198.500 357.981 C 1206.200 357.399, 1219.025 356.711, 1227 356.452 C 1234.975 356.193, 1246.450 355.365, 1252.500 354.613 C 1258.550 353.861, 1269.125 353.171, 1276 353.081 C 1282.875 352.990, 1291.650 352.429, 1295.500 351.833 C 1299.467 351.219, 1306.616 351.025, 1312 351.386 C 1326.696 352.369, 1343.288 353.881, 1345.500 354.439 C 1353.506 356.458, 1356.653 357.004, 1365.531 357.910 C 1376.756 359.055, 1406.450 366.204, 1412.308 369.171 C 1417.511 371.806, 1439.522 385.824, 1450.500 393.494 C 1458.477 399.068, 1474.488 414.099, 1479.797 421 C 1482.883 425.011, 1492.598 443.827, 1495.886 452.160 C 1502.387 468.638, 1512.353 507.367, 1515.518 528.456 C 1518.473 548.138, 1528.115 579.330, 1538.716 603.500 C 1545.181 618.240, 1574.819 669.087, 1580.678 675.492 C 1581.680 676.587, 1584.396 680.053, 1586.712 683.193 C 1592.284 690.746, 1610.171 711.142, 1621.623 723 L 1630.797 732.500 1607.173 732.635 C 1594.180 732.710, 1573.413 733.280, 1561.025 733.901 C 1501.179 736.905, 1474.980 738.069, 1446 739.011 C 1386.229 740.954, 1361.329 742.071, 1312 745.026 C 1247.493 748.890, 1230.643 749.814, 1212.500 750.482 C 1204.250 750.786, 1192.325 751.252, 1186 751.518 C 1175.213 751.972, 1155.607 752.597, 1077.500 754.976 C 1059.900 755.512, 1017.150 756.188, 982.500 756.478 C 947.850 756.769, 900.150 757.230, 876.500 757.502 C 852.850 757.775, 799.975 758.230, 759 758.512 C 718.025 758.795, 675.950 759.236, 665.500 759.493 C 584.928 761.474, 549.672 761.093, 482.500 757.518 C 467.650 756.728, 444.250 755.599, 430.500 755.009 C 314.557 750.032, 253.088 740.364, 200.792 718.877 C 186.434 712.977, 169.003 704.215, 168.443 702.614 C 167.703 700.500, 165.981 678.439, 164.962 658 C 163.975 638.217, 163.270 630.636, 159.109 595 C 158.049 585.925, 156.894 575.575, 156.541 572 C 153.997 546.219, 158.785 418.849, 165.544 332.500 C 172.107 248.655, 180.183 202.909, 202.002 126 C 211.704 91.801, 213.940 85, 215.482 85 C 216.366 85, 217.121 83.377, 217.542 80.571 C 218.182 76.302, 218.357 76.116, 222.353 75.449 C 233.891 73.523, 247.445 68.317, 269.678 57.275 C 294.778 44.807, 300 40.998, 300 35.152 C 300 31.716, 298.451 30.250, 290 25.690 C 281.971 21.358, 276.810 19.845, 256.500 15.875 C 221.896 9.109, 173.646 11.222, 119.500 21.874 C 111.250 23.497, 99.550 25.576, 93.500 26.494 C 45.275 33.811, 27.599 38.185, 12.500 46.538 C 7.942 49.059, 4 54.196, 4 57.615 C 4 60.883, 9.934 66.441, 15.670 68.545 C 18.327 69.519, 27.755 73.174, 36.622 76.667 C 52.452 82.903, 77.448 90, 83.579 90 C 85.292 90, 87.414 90.800, 88.302 91.781 C 89.795 93.431, 89.581 94.512, 85.377 106.531 C 17.950 299.299, -12.780 580.341, 5.560 836.500 C 14.064 955.274, 33.339 1062.457, 60.917 1144.333 C 65.075 1156.677, 65.712 1159.488, 64.716 1161.083 C 64.058 1162.137, 63.089 1163, 62.564 1163 C 61.741 1163, 41.496 1172.612, 28.183 1179.324 C 20.282 1183.307, 12.810 1192.457, 14.296 1196.330 C 14.910 1197.930, 22.576 1201.695, 29 1203.552 C 37.871 1206.117, 65.876 1209.979, 86.500 1211.483 C 98.050 1212.325, 110.200 1213.261, 113.500 1213.562 C 116.800 1213.863, 126.025 1214.113, 134 1214.117 C 149.274 1214.125, 157.463 1212.701, 161.109 1209.401 C 163.975 1206.808, 165.583 1200.575, 164.181 1197.497 C 163.208 1195.362, 163.293 1194.994, 164.771 1194.956 C 167.136 1194.896, 180.036 1193.241, 182.500 1192.682 C 183.600 1192.432, 188.775 1191.706, 194 1191.068 C 199.225 1190.430, 206.650 1189.508, 210.500 1189.019 C 214.350 1188.530, 227.625 1187.416, 240 1186.544 C 280.748 1183.670, 295.476 1182.302, 320.500 1179.066 C 324.900 1178.496, 334.800 1177.359, 342.500 1176.539 C 418.954 1168.392, 456.101 1160.608, 491.540 1145.309 C 499.654 1141.807, 504.776 1139.096, 517.399 1131.622 C 524.649 1127.330, 536.948 1116.750, 542.740 1109.823 C 553.514 1096.938, 562.232 1080.227, 569.778 1058 C 572.886 1048.843, 573.399 1045.952, 573.787 1035.403 C 574.241 1023.041, 572.484 1004.417, 569.378 988.663 C 565.450 968.742, 551.935 940.972, 540.551 929.434 C 515.712 904.257, 482.525 889.610, 426.500 879.097 C 387.338 871.748, 359.723 869.205, 309.500 868.322 C 263.667 867.516, 234.510 870.069, 194.371 878.403 C 190.592 879.188, 184.800 880.112, 181.500 880.457 C 178.200 880.802, 174.037 881.311, 172.250 881.587 L 169 882.091 169 876.700 C 169 867.915, 163.748 834.718, 161.382 828.554 C 160.967 827.472, 161.926 827.485, 166.688 828.624 C 182.175 832.330, 224.345 838.295, 268 842.955 C 283.675 844.628, 305.950 847.313, 317.500 848.921 C 366.147 855.696, 363.776 855.539, 410 855.025 C 511.652 853.894, 516.821 854.056, 616 861.476 C 680.663 866.313, 701.535 867.786, 729.500 869.486 C 785.366 872.882, 882.721 873.315, 954 870.483 C 960.875 870.210, 984.050 869.542, 1005.500 868.998 C 1026.950 868.455, 1051.250 867.774, 1059.500 867.485 C 1067.750 867.195, 1099.700 866.300, 1130.500 865.495 C 1188.828 863.971, 1200.500 863.489, 1215.500 861.991 C 1220.450 861.496, 1231.925 860.836, 1241 860.524 C 1266.612 859.643, 1300.286 857.964, 1302.500 857.457 C 1303.600 857.206, 1312.688 856.324, 1322.696 855.498 C 1332.704 854.671, 1344.056 853.330, 1347.922 852.516 C 1351.789 851.703, 1361.825 850.350, 1370.226 849.511 C 1378.627 848.671, 1386.400 847.818, 1387.500 847.615 C 1393.991 846.420, 1405 845.937, 1405 846.847 C 1405 848.326, 1408.888 849.330, 1410.298 848.214 C 1410.959 847.691, 1416.225 846.973, 1422 846.618 C 1454.210 844.639, 1468.261 844.209, 1505 844.081 C 1550.222 843.924, 1581.523 842.707, 1596.500 840.524 C 1602 839.722, 1611 838.607, 1616.500 838.045 C 1622 837.483, 1627.580 836.806, 1628.900 836.540 C 1631.950 835.926, 1639.352 837.557, 1639.815 838.946 C 1640.009 839.526, 1640.738 840, 1641.437 840 C 1642.136 840, 1643.952 841.153, 1645.472 842.562 C 1646.992 843.971, 1648.848 844.889, 1649.596 844.602 C 1651.399 843.910, 1659.514 853.927, 1662.882 861 C 1664.322 864.025, 1665.950 866.831, 1666.500 867.235 C 1667.050 867.639, 1667.147 867.976, 1666.715 867.985 C 1666.283 867.993, 1666.427 868.929, 1667.035 870.065 C 1667.643 871.201, 1668.303 872.888, 1668.503 873.815 C 1670.591 883.517, 1672.903 895.410, 1673.453 899.284 C 1674.274 905.060, 1672.601 911.168, 1670.428 910.334 C 1669.628 910.027, 1668.418 910.215, 1667.737 910.752 C 1666.999 911.334, 1644.315 912.084, 1611.500 912.611 C 1560.519 913.429, 1536.443 913.505, 1473.500 913.045 C 1449 912.866, 1430.986 913.396, 1418.500 914.661 C 1414.650 915.051, 1411.065 915.255, 1410.533 915.113 C 1410.001 914.971, 1406.851 915.332, 1403.533 915.915 C 1400.215 916.498, 1395.475 917.161, 1393 917.387 C 1381.361 918.452, 1367.544 920.164, 1366.781 920.635 C 1366.315 920.923, 1363.587 921.367, 1360.717 921.622 C 1348.517 922.705, 1309.256 931.868, 1286.770 938.880 C 1268.731 944.505, 1230.858 961.663, 1217.770 970.139 C 1215.765 971.438, 1212.214 973.625, 1209.878 975 C 1198.691 981.586, 1174.625 1003.282, 1170.920 1010.122 C 1160.792 1028.822, 1153.972 1046.217, 1152.496 1057.111 C 1152.094 1060.075, 1151.593 1063.400, 1151.383 1064.500 C 1150.273 1070.289, 1149.974 1089.519, 1150.885 1096.500 C 1151.459 1100.900, 1152.153 1106.169, 1152.426 1108.209 C 1153.837 1118.738, 1165.426 1144.473, 1175.517 1159.482 C 1185.949 1174.999, 1199.622 1185.927, 1223.500 1197.828 C 1257.974 1215.011, 1285.060 1223.749, 1323 1229.926 C 1342.672 1233.128, 1390.097 1239.177, 1391.454 1238.656 C 1392.129 1238.397, 1396.241 1238.603, 1400.591 1239.114 C 1417.449 1241.093, 1461.819 1241.629, 1505 1240.374 C 1517.375 1240.014, 1529.300 1239.714, 1531.500 1239.707 C 1537.902 1239.685, 1594.860 1235.083, 1602 1234.010 C 1605.575 1233.473, 1611.462 1232.576, 1615.082 1232.017 C 1627.398 1230.114, 1627.602 1230.253, 1621.349 1236.262 C 1616.935 1240.504, 1615.768 1242.312, 1615.328 1245.595 C 1614.808 1249.468, 1614.945 1249.735, 1618.141 1251.059 C 1619.988 1251.825, 1623.300 1252.529, 1625.500 1252.625 C 1652.130 1253.777, 1668.878 1253.917, 1680.500 1253.083 C 1699.764 1251.701, 1712.404 1250.225, 1719.500 1248.530 C 1722.800 1247.742, 1730.225 1246.180, 1736 1245.058 C 1758.853 1240.618, 1763.619 1237.422, 1765.554 1225.236 C 1766.337 1220.309, 1764.971 1216.243, 1761.300 1212.572 C 1759.346 1210.619, 1740.169 1199.847, 1738 1199.485 C 1731.067 1198.328, 1730.507 1195.834, 1735.082 1186.482 C 1747.034 1162.047, 1760.981 1120.489, 1769.978 1082.500 C 1771.671 1075.350, 1773.492 1068.600, 1774.024 1067.500 C 1777.737 1059.823, 1789.721 991.423, 1794.962 948 C 1802.968 881.660, 1805.699 827.373, 1806.281 723 C 1806.491 685.325, 1806.402 662.375, 1806.082 672 L 1805.500 689.500 1804.659 667.514 C 1804.196 655.422, 1803.409 644.764, 1802.909 643.830 C 1802.409 642.896, 1802 639.428, 1802 636.125 C 1802 632.821, 1801.550 629.840, 1801 629.500 C 1800.450 629.160, 1800 627.231, 1800 625.214 C 1800 621.651, 1797.793 609.090, 1795.921 602 C 1795.412 600.075, 1794.864 597.280, 1794.703 595.788 C 1794.541 594.296, 1794.092 592.759, 1793.704 592.371 C 1793.317 591.984, 1793 590.410, 1793 588.873 C 1793 586.236, 1789.097 569.103, 1786.976 562.429 C 1786.439 560.740, 1786 558.404, 1786 557.238 C 1786 556.072, 1785.550 554.840, 1785 554.500 C 1784.450 554.160, 1784 552.360, 1784 550.500 C 1784 548.640, 1783.550 546.840, 1783 546.500 C 1782.450 546.160, 1782 544.424, 1782 542.641 C 1782 540.858, 1781.635 538.973, 1781.189 538.450 C 1780.743 537.928, 1779.555 533.900, 1778.549 529.500 C 1777.543 525.100, 1776.108 519.572, 1775.360 517.215 C 1774.612 514.858, 1774 512.067, 1774 511.012 C 1774 509.957, 1773.591 508.060, 1773.090 506.797 C 1772.590 505.534, 1770.734 498.200, 1768.966 490.500 C 1767.199 482.800, 1765.090 474.250, 1764.281 471.500 C 1763.472 468.750, 1761.776 462.675, 1760.513 458 C 1758.290 449.770, 1757.500 447.298, 1753.002 434.500 C 1746.161 415.041, 1738.695 397.329, 1729.185 378 C 1722.767 364.956, 1722.224 363.400, 1723.775 362.500 C 1726.812 360.739, 1738.554 348.642, 1741.387 344.356 C 1746.513 336.600, 1747.661 326.795, 1744.198 320.358 C 1741.969 316.216, 1730.294 308.055, 1725.661 307.400 C 1724.472 307.232, 1721.172 306.448, 1718.326 305.658 C 1715.480 304.868, 1710.157 304.176, 1706.498 304.121 C 1702.838 304.066, 1699.419 303.759, 1698.900 303.438 C 1697.758 302.732, 1662.306 304.766, 1652.500 306.100 C 1648.650 306.624, 1643.700 307.297, 1641.500 307.596 C 1636.277 308.305, 1606.341 316.190, 1598 319.053 C 1582.551 324.358, 1567.891 333.159, 1559.247 342.320 C 1553.684 348.216, 1552 351.378, 1552 355.930 C 1552 363.380, 1560.205 366.951, 1583.134 369.480 C 1599.542 371.290, 1601.187 371.592, 1606.250 373.724 C 1609.708 375.181, 1611.273 377, 1609.067 377 C 1606.435 377, 1607.648 382.373, 1614.606 401.541 C 1635.803 459.929, 1642.122 488.053, 1645.041 537 C 1646.237 557.047, 1645.417 663.620, 1643.923 682.371 C 1642.459 700.743, 1642.924 700.270, 1635.216 691.223 C 1621.313 674.907, 1590 630.701, 1590 627.391 C 1590 626.781, 1588.442 622.909, 1586.537 618.786 C 1584.632 614.663, 1582.118 607.737, 1580.950 603.395 C 1579.782 599.053, 1577.073 589.952, 1574.929 583.171 C 1572.785 576.391, 1570.528 567.841, 1569.914 564.171 C 1567.892 552.093, 1555.971 505.798, 1550.816 490 C 1538.281 451.589, 1526.793 424.060, 1517.319 409.727 C 1514.595 405.607, 1506.084 396.038, 1497.521 387.467 C 1476.342 366.271, 1466.695 359.965, 1426.640 341.135 C 1387.516 322.742, 1370.855 318.623, 1330.500 317.366 C 1315.573 316.901, 1306.569 317.218, 1288.500 318.844 C 1248.206 322.468, 1236.415 323.015, 1193.500 323.246 C 1135.929 323.557, 1118.159 322.068, 1088.228 314.425 C 1056.180 306.242, 1042.494 301.547, 1027.387 293.554 C 993.730 275.747, 976.016 261.486, 948 229.644 C 922.227 200.351, 904.902 168.463, 888.975 121 C 880.214 94.892, 859.887 42.572, 854.850 33.165 C 848.425 21.165, 833.599 4.341, 827.306 1.908 C 824.410 0.788, 797.889 -0.641, 797 0.275 M 777.539 61.580 C 772.559 69.181, 754.179 82.467, 719.500 103.534 C 701.008 114.767, 673.818 133.185, 665.189 140.322 C 651.415 151.716, 644.305 162.351, 641.447 175.837 C 639.822 183.506, 639.581 194.053, 640.925 198.739 L 641.850 201.964 638.062 200.032 C 625.082 193.410, 598.085 191.134, 576.423 194.835 C 569.780 195.970, 561.835 197.838, 558.767 198.986 C 547.083 203.357, 525.008 219.394, 514.847 230.893 C 512.608 233.427, 506.719 241.189, 501.761 248.142 C 492.781 260.734, 492.709 260.803, 483.623 265.740 C 478.605 268.466, 471.800 271.902, 468.500 273.376 C 459.646 277.331, 447.198 290.666, 442.773 300.934 C 439.575 308.355, 439.512 308.787, 439.506 323.500 C 439.499 340.902, 440.122 343.560, 446.774 354.535 C 452.617 364.175, 457.355 367.978, 467.697 371.329 C 479.347 375.105, 484.971 376, 497.049 376 C 506.820 376, 507.998 376.189, 507.979 377.750 C 507.967 378.712, 510.860 385.350, 514.407 392.500 C 517.955 399.650, 522.678 409.325, 524.904 414 C 527.348 419.135, 533.415 428.411, 540.225 437.429 C 553.016 454.365, 558.723 459.356, 575.332 468.129 C 585.381 473.437, 585.600 473.499, 594 473.435 C 601.897 473.374, 603.103 473.072, 611 469.180 C 629.854 459.888, 643.733 451.974, 649.505 447.223 C 652.854 444.468, 657.765 440.837, 660.419 439.153 L 665.246 436.093 671.198 444.105 C 678.985 454.586, 680.230 457.547, 678.540 461.568 C 677.833 463.247, 675.511 466.883, 673.378 469.647 C 668.603 475.835, 664.837 480.843, 659.575 488 C 657.351 491.025, 653.123 496.200, 650.179 499.500 C 647.235 502.800, 642.343 508.791, 639.309 512.814 C 636.274 516.837, 630.314 523.812, 626.065 528.314 C 614.152 540.937, 602.366 554.283, 590.930 568.104 C 571.934 591.059, 559.523 604.829, 557.750 604.915 C 556.595 604.971, 556 605.813, 556 607.390 C 556 609.369, 555.205 610.013, 551.374 611.140 C 548.830 611.888, 546.532 613.063, 546.267 613.750 C 545.024 616.978, 532.037 613.449, 521.558 607.036 C 518.015 604.867, 512.952 601.967, 510.308 600.592 C 505.241 597.957, 504.816 597.606, 489.080 583.074 C 476.724 571.663, 474.628 569.997, 462.895 562.261 C 453.429 556.018, 447.680 554, 439.370 554 C 436.063 554, 435.910 553.797, 429.020 540.250 C 425.174 532.688, 419.725 522.450, 416.913 517.500 C 414.100 512.550, 410.525 505.350, 408.967 501.500 C 405.059 491.842, 403.407 491.722, 389.701 500.107 C 375.831 508.592, 375.067 509.192, 375.031 511.622 C 374.960 516.449, 380.324 529.379, 388.048 543 C 404.323 571.701, 415 591.528, 415 593.050 C 415 593.902, 415.540 595.140, 416.200 595.800 C 417.133 596.733, 417.072 597, 415.923 597 C 413.653 597, 408.446 602.226, 405.851 607.110 C 403.797 610.975, 403.517 612.882, 403.509 623.052 C 403.500 634.399, 403.566 634.736, 407.229 642.052 C 411.580 650.742, 427.551 670.553, 435.225 676.780 C 438.126 679.134, 443.423 682.509, 446.995 684.280 C 453.280 687.395, 453.913 687.502, 466.495 687.556 C 480.698 687.618, 482.675 688.007, 506.186 695.355 C 539.452 705.752, 565.499 711, 583.843 711 C 592.924 711, 594.037 710.799, 595.006 708.990 C 595.597 707.884, 600.226 704.908, 605.291 702.376 C 622.876 693.586, 638.249 679.348, 664.536 647.500 C 672.708 637.600, 681.629 627.025, 684.360 624 C 687.092 620.975, 691.223 615.898, 693.541 612.718 C 695.859 609.538, 700.911 603.637, 704.769 599.605 C 708.626 595.573, 712.844 590.416, 714.141 588.145 C 715.439 585.874, 716.725 584.015, 717 584.016 C 717.275 584.016, 721.550 587.662, 726.500 592.118 C 739.594 603.907, 751.303 613.061, 770.500 626.520 C 812.495 655.963, 837.925 674.769, 857 690.489 C 870.234 701.396, 881.411 709.612, 886.793 712.391 C 890.770 714.443, 939.514 715.450, 968.048 714.069 C 1029.607 711.089, 1058.778 709.245, 1080 706.989 C 1130.659 701.605, 1147.070 700.836, 1217 700.568 C 1277.781 700.334, 1284.876 700.133, 1299.500 698.223 C 1308.300 697.073, 1321.575 695.387, 1329 694.475 C 1336.425 693.563, 1343.513 692.625, 1344.750 692.390 C 1347.677 691.833, 1347.895 688, 1345 688 C 1343.900 688, 1343 687.752, 1343 687.449 C 1343 687.146, 1344.760 682.758, 1346.910 677.699 C 1351.406 667.121, 1353.066 662.292, 1359.439 641.253 C 1361.979 632.867, 1369.951 609.917, 1377.154 590.253 C 1384.356 570.589, 1393.538 544.580, 1397.556 532.456 C 1401.575 520.332, 1406.472 506.880, 1408.440 502.562 L 1412.017 494.713 1419.259 495.285 C 1423.241 495.600, 1430.325 496.825, 1435 498.006 C 1440.180 499.315, 1448.301 500.372, 1455.793 500.713 C 1476.541 501.658, 1485.003 497.973, 1484.987 488 C 1484.979 483.320, 1480.387 475.564, 1474.361 470.056 C 1471.688 467.612, 1465.450 461.749, 1460.500 457.026 C 1446.943 444.092, 1423.688 425.011, 1413 418.052 C 1400.408 409.854, 1382.063 400.874, 1376.664 400.266 C 1370.389 399.558, 1366.330 402.081, 1357.144 412.401 C 1341.513 429.961, 1319.825 470.942, 1305.758 509.500 C 1299.966 525.375, 1290.154 545.466, 1282.429 557.264 C 1275.304 568.147, 1253.788 597.395, 1252.174 598.392 C 1251.098 599.058, 1245.537 597.267, 1236.338 593.293 C 1231.470 591.190, 1230.067 590.085, 1229.655 588.027 C 1228.758 583.540, 1230.702 572.296, 1236.490 548.500 C 1239.567 535.850, 1242.944 521.450, 1243.995 516.500 C 1248.124 497.042, 1254 459.634, 1254 452.807 L 1254 448.461 1271.250 445.196 C 1280.737 443.401, 1293.900 441.303, 1300.500 440.534 C 1315.502 438.787, 1322.270 436.428, 1328.698 430.706 C 1333.034 426.846, 1332.487 418.347, 1327.680 414.862 C 1321.253 410.203, 1274.039 390.387, 1261.500 387.087 C 1245.423 382.856, 1228.219 379.890, 1216.500 379.328 C 1197.754 378.430, 1193.884 380.174, 1189.073 391.690 C 1187.738 394.886, 1183.984 403.491, 1180.729 410.814 C 1173.857 426.278, 1165.828 455.854, 1156.561 499.845 C 1152.304 520.052, 1149.355 529.975, 1143.816 542.718 L 1139.810 551.936 1130.234 547.015 C 1124.967 544.308, 1120.338 542.291, 1119.946 542.533 C 1119.555 542.775, 1116.594 542.061, 1113.367 540.946 C 1089.657 532.755, 1060.554 528.708, 1006 526.017 C 977.806 524.626, 975.632 524.350, 957.728 519.893 C 937.746 514.918, 934.696 513.666, 930.909 508.886 C 929.213 506.743, 927.365 505.274, 926.803 505.622 C 925.403 506.487, 903.433 484.522, 888.672 467.500 C 873.345 449.825, 850.617 426.482, 841.500 419.052 C 829.117 408.960, 809.863 396.553, 801.500 393.277 C 790.056 388.794, 767.671 382.902, 759.653 382.263 C 749.146 381.426, 738.050 384.271, 732.680 389.180 C 730.382 391.281, 727.879 393, 727.119 393 C 724.838 393, 726.400 385.789, 730.323 378.208 C 734.502 370.134, 736.089 364.166, 739.024 345.500 C 742.016 326.470, 741.478 318.415, 735.717 296 C 730.526 275.804, 726.575 264.968, 721.105 255.922 L 717.226 249.506 723.656 247.745 C 729.042 246.269, 745.199 239.390, 751.147 236.040 C 752.052 235.529, 757.002 232.788, 762.147 229.948 C 767.291 227.108, 772.850 223.753, 774.500 222.492 C 777.989 219.826, 794.521 193.758, 797.213 186.678 C 798.221 184.027, 799.765 177.602, 800.644 172.401 C 802.117 163.680, 802.111 161.644, 800.564 146.222 C 798.153 122.194, 796.142 107.373, 794.359 100.500 C 793.503 97.200, 791.758 88.359, 790.481 80.854 C 788.294 68, 786.161 61.453, 783.610 59.765 C 781.470 58.349, 779.215 59.023, 777.539 61.580 M 0.446 686.500 C 0.447 704.100, 0.583 711.159, 0.749 702.187 C 0.914 693.215, 0.914 678.815, 0.748 670.187 C 0.581 661.559, 0.446 668.900, 0.446 686.500 M 814 903.149 C 784.796 904.510, 761.800 908.188, 736.288 915.577 C 704.855 924.681, 674.447 938.998, 654.119 954.263 C 629.264 972.929, 612.047 1002.853, 604.959 1039.708 C 603.818 1045.643, 602.021 1055, 600.966 1060.500 C 599.912 1066, 598.758 1075.675, 598.403 1082 C 597.818 1092.397, 598.019 1094.603, 600.499 1105 C 603.953 1119.479, 606.214 1124.892, 614.802 1139.240 C 624.147 1154.852, 629.366 1161.467, 643.154 1175.176 C 661.616 1193.533, 669.349 1196.596, 711 1202.051 C 731.510 1204.737, 739.208 1205.240, 771.500 1206.004 C 791.850 1206.485, 820.875 1207.417, 836 1208.074 C 859.462 1209.093, 889.306 1208.876, 903 1207.586 C 909.350 1206.988, 953.893 1205.936, 991 1205.508 C 1032.399 1205.030, 1049.842 1203.821, 1057.962 1200.865 C 1068.518 1197.022, 1067.463 1196.665, 1080.617 1208.528 C 1087.744 1214.955, 1094.642 1220.244, 1097.851 1221.742 C 1103.165 1224.222, 1103.221 1224.226, 1105.851 1222.332 C 1109.224 1219.903, 1114.380 1209.529, 1116.701 1200.500 C 1118.880 1192.023, 1118.857 1179.419, 1116.639 1166.193 C 1114.759 1154.979, 1107.814 1131.539, 1104.341 1124.685 C 1099.294 1114.726, 1089.522 1107.003, 1083.416 1108.149 C 1082.120 1108.392, 1079.864 1111.833, 1076.443 1118.783 C 1073.662 1124.435, 1070.512 1129.922, 1069.443 1130.978 C 1065.023 1135.345, 1047.646 1142.722, 1034.500 1145.813 C 1014.758 1150.454, 1009.194 1151.355, 993.500 1152.453 C 944.629 1155.871, 935.047 1156.201, 899 1155.702 C 860.856 1155.174, 855.245 1154.730, 821 1149.532 C 808.040 1147.564, 734.445 1132.854, 719.705 1129.285 C 707.943 1126.437, 697.517 1121.757, 695.270 1118.316 C 693.944 1116.286, 694.055 1116.023, 696.848 1114.579 C 706.286 1109.698, 745.867 1108.122, 786.500 1111.008 C 818.165 1113.258, 873.325 1112.862, 902 1110.181 C 961.926 1104.576, 990.647 1098.012, 1021.255 1082.924 C 1038.089 1074.625, 1053.022 1064.971, 1059.822 1057.989 C 1065.589 1052.069, 1072.464 1039.551, 1076.584 1027.471 C 1081.394 1013.367, 1081.103 985.406, 1076.024 973.556 C 1065.852 949.825, 1001.335 920.153, 937 909.618 C 903.415 904.118, 851.631 901.395, 814 903.149 M 295.795 937.560 C 276.509 939.566, 221.299 948.129, 219.033 949.464 C 218.740 949.637, 212.783 950.972, 205.795 952.430 C 182.741 957.241, 154.581 966.326, 144.353 972.252 C 142.039 973.593, 141.344 974.599, 141.725 976.055 C 142.086 977.436, 141.168 979.049, 138.693 981.383 C 135.513 984.382, 135.031 985.541, 134.059 992.534 C 132.244 1005.577, 135.975 1020.536, 146.271 1041.500 C 148.701 1046.450, 152.204 1053.604, 154.055 1057.397 C 159.755 1069.081, 172.842 1080.390, 186.720 1085.624 C 196.640 1089.365, 221.488 1092.647, 247 1093.585 C 276.017 1094.652, 343.219 1094.286, 360.500 1092.967 C 385.660 1091.046, 412.391 1085.908, 436 1078.455 C 451.011 1073.716, 470.724 1063.312, 478.322 1056.119 C 483.537 1051.182, 491.087 1040.832, 495.141 1033.065 C 498.029 1027.532, 498.500 1025.638, 498.500 1019.565 C 498.500 1013.207, 498.070 1011.662, 494.202 1004.124 C 482.842 981.987, 469.883 969.917, 444.673 957.992 C 422.665 947.580, 400.993 942.371, 359.506 937.520 C 343.795 935.682, 313.657 935.701, 295.795 937.560 M 856.042 966.104 C 834.189 967.421, 807.107 970.808, 789.500 974.426 C 742.957 983.991, 712.685 997.501, 710.390 1009.733 C 708.348 1020.622, 716.590 1027.727, 737.858 1033.412 C 743.005 1034.788, 747.730 1036.559, 748.358 1037.348 C 748.986 1038.136, 754.900 1040.068, 761.500 1041.641 C 773.254 1044.441, 774.064 1044.498, 801 1044.415 C 829.512 1044.327, 841.628 1043.589, 883 1039.421 C 931.164 1034.568, 958.488 1030.234, 977.928 1024.361 C 990.669 1020.512, 1009.615 1011.764, 1014.859 1007.309 C 1018.204 1004.467, 1018.211 1004.441, 1016.708 1000.844 C 1014.028 994.430, 1000.522 986.898, 979.301 979.981 C 940.227 967.246, 904.271 963.198, 856.042 966.104 M 1417.695 998.638 C 1417.538 998.795, 1412.480 999.161, 1406.455 999.452 C 1389.667 1000.262, 1378.529 1001.374, 1370.264 1003.065 C 1367.385 1003.654, 1364.572 1003.854, 1364.014 1003.509 C 1363.456 1003.164, 1363 1003.385, 1363 1004 C 1363 1004.615, 1362.569 1004.852, 1362.043 1004.527 C 1361.517 1004.201, 1357.579 1004.817, 1353.293 1005.895 C 1349.007 1006.973, 1343.702 1008.128, 1341.503 1008.461 C 1334.911 1009.461, 1315.298 1015.177, 1310.500 1017.497 C 1308.850 1018.295, 1303.909 1020.337, 1299.521 1022.035 C 1295.133 1023.733, 1291.308 1025.437, 1291.021 1025.822 C 1290.734 1026.206, 1288.025 1027.641, 1285 1029.011 C 1281.975 1030.380, 1278.609 1032.305, 1277.520 1033.289 C 1276.431 1034.272, 1274.518 1035.334, 1273.270 1035.647 C 1272.021 1035.960, 1271 1036.585, 1271 1037.035 C 1271 1037.484, 1268.078 1040.891, 1264.507 1044.606 C 1255.712 1053.754, 1249.713 1063.945, 1249.594 1069.940 C 1249.474 1075.957, 1250.596 1082.318, 1252.387 1085.782 C 1255.715 1092.217, 1263.418 1101.159, 1267.845 1103.726 C 1270.405 1105.211, 1272.634 1106.733, 1272.798 1107.108 C 1272.962 1107.483, 1277.237 1109.270, 1282.298 1111.080 C 1287.359 1112.889, 1291.725 1114.688, 1292 1115.078 C 1292.275 1115.468, 1296.550 1117.037, 1301.500 1118.566 C 1306.450 1120.094, 1310.725 1121.653, 1311 1122.029 C 1311.275 1122.405, 1316.675 1124.207, 1323 1126.034 C 1329.325 1127.861, 1334.725 1129.666, 1335 1130.045 C 1335.678 1130.980, 1379.158 1143.228, 1391 1145.820 C 1406.624 1149.240, 1434.356 1154.425, 1436.500 1154.327 C 1437.600 1154.277, 1443 1154.921, 1448.500 1155.758 C 1460.419 1157.573, 1512.496 1157.871, 1526 1156.203 C 1530.675 1155.625, 1536.975 1154.866, 1540 1154.516 C 1543.025 1154.166, 1547.075 1153.459, 1549 1152.945 C 1550.925 1152.432, 1554.161 1152.009, 1556.191 1152.006 C 1558.221 1152.003, 1560.121 1151.613, 1560.413 1151.141 C 1560.705 1150.669, 1563.514 1149.980, 1566.656 1149.611 C 1569.798 1149.241, 1572.848 1148.588, 1573.434 1148.158 C 1574.020 1147.728, 1576.975 1146.784, 1580 1146.059 C 1583.025 1145.335, 1585.950 1144.405, 1586.500 1143.992 C 1587.050 1143.579, 1590.200 1142.470, 1593.500 1141.526 C 1596.800 1140.583, 1599.955 1139.437, 1600.512 1138.980 C 1601.069 1138.524, 1604.219 1137.144, 1607.512 1135.914 C 1610.805 1134.684, 1614.625 1132.896, 1616 1131.939 C 1617.375 1130.983, 1621.810 1128.308, 1625.856 1125.994 C 1629.902 1123.681, 1633.960 1121.048, 1634.875 1120.144 C 1635.789 1119.240, 1638.807 1116.700, 1641.580 1114.500 C 1652.944 1105.486, 1667.341 1086.013, 1677.656 1065.705 C 1683.093 1055, 1680.402 1048.362, 1665.950 1036.826 C 1660.358 1032.362, 1638.654 1021.867, 1630.500 1019.683 C 1627.200 1018.799, 1619.550 1016.657, 1613.500 1014.922 C 1607.450 1013.188, 1600.700 1011.599, 1598.500 1011.391 C 1596.300 1011.184, 1592.025 1010.499, 1589 1009.870 C 1585.975 1009.240, 1581.700 1008.596, 1579.500 1008.438 C 1577.300 1008.279, 1573.025 1007.918, 1570 1007.636 C 1557.942 1006.508, 1538.359 1004.904, 1536 1004.851 C 1534.625 1004.820, 1527.425 1004.189, 1520 1003.450 C 1512.575 1002.710, 1505.150 1002.149, 1503.500 1002.204 C 1501.850 1002.258, 1492.625 1001.520, 1483 1000.563 C 1468.469 999.118, 1418.683 997.651, 1417.695 998.638" stroke="none" fill="#ffffff" fill-rule="evenodd"/>
</svg>